<?xml version="1.0" encoding="utf-8"?>
<!-- Generator: Adobe Illustrator 16.0.0, SVG Export Plug-In . SVG Version: 6.00 Build 0)  -->
<!DOCTYPE svg PUBLIC "-//W3C//DTD SVG 1.1//EN" "http://www.w3.org/Graphics/SVG/1.1/DTD/svg11.dtd">
<svg version="1.1" id="Calque_1" xmlns="http://www.w3.org/2000/svg" xmlns:xlink="http://www.w3.org/1999/xlink" x="0px" y="0px"
	 width="841.889px" height="595.281px" viewBox="0 0 841.889 595.281" enable-background="new 0 0 841.889 595.281"
	 xml:space="preserve">
<g>
	<path fill="#FFFFFF" d="M691.082,34.855h-114.98V17.548C576.102,7.858,568.243,0,558.554,0s-17.548,7.858-17.548,17.548v17.308
		H438.49V17.548C438.49,7.858,430.632,0,420.944,0c-9.689,0-17.548,7.858-17.548,17.548v17.308h-98.158V17.548
		C305.238,7.858,297.379,0,287.69,0c-9.688,0-17.547,7.858-17.547,17.548v17.308H150.808c-9.689,0-17.548,7.858-17.548,17.548
		v396.493c0,9.688,7.858,17.547,17.548,17.547h107.701c17.258,73.741,83.512,128.838,162.435,128.838s145.176-55.1,162.435-128.838
		h107.701c9.688,0,17.547-7.858,17.547-17.547V52.403C708.629,42.714,700.774,34.855,691.082,34.855L691.082,34.855z M270.143,69.95
		v15.857c0,9.689,7.858,17.548,17.547,17.548c9.689,0,17.548-7.858,17.548-17.548V69.95h98.158v15.857
		c0,9.689,7.858,17.548,17.548,17.548c9.688,0,17.547-7.858,17.547-17.548V69.95h102.516v15.857c0,9.689,7.858,17.548,17.548,17.548
		s17.548-7.858,17.548-17.548V69.95h97.433v71.758h-505.18V69.95H270.143z M420.944,560.185
		c-72.653,0-131.762-59.108-131.762-131.762c0-72.652,59.108-131.762,131.762-131.762c72.652,0,131.762,59.106,131.762,131.762
		C552.705,501.08,493.599,560.185,420.944,560.185z M587.727,431.348c0.018-0.977,0.073-1.945,0.073-2.925
		c0-92.005-74.853-166.856-166.856-166.856c-92.005,0-166.857,74.852-166.857,166.856c0,0.979,0.059,1.948,0.073,2.925h-85.808
		V176.806h505.18v254.542H587.727L587.727,431.348z"/>
	<path fill="#FFFFFF" d="M438.49,432.851v-84.889c0-9.689-7.858-17.548-17.547-17.548c-9.689,0-17.548,7.858-17.548,17.548v92.159
		c0,4.653,1.849,9.116,5.139,12.409l40.33,40.333c3.428,3.425,7.917,5.139,12.409,5.139c4.489,0,8.981-1.714,12.408-5.139
		c6.853-6.853,6.853-17.963,0-24.815L438.49,432.851L438.49,432.851z"/>
</g>
</svg>
